<?xml version="1.0" encoding="UTF-8" standalone="no"?>
<svg width="195px" height="45px" viewBox="0 0 195 45" version="1.1" xmlns="http://www.w3.org/2000/svg" xmlns:xlink="http://www.w3.org/1999/xlink" xmlns:sketch="http://www.bohemiancoding.com/sketch/ns">
    <!-- Generator: Sketch 3.5.2 (25235) - http://www.bohemiancoding.com/sketch -->
    <title>naviqo_logo</title>
    <desc>Created with Sketch.</desc>
    <defs>
        <path id="path-1" d="M0,0.404 L194.872,0.404 L194.872,45 L0,45"></path>
        <path id="path-3" d="M0,0.404 L194.872,0.404 L194.872,45 L0,45"></path>
    </defs>
    <g id="Page-1" stroke="none" stroke-width="1" fill="none" fill-rule="evenodd" sketch:type="MSPage">
        <g id="naviqo_logo" sketch:type="MSLayerGroup">
            <mask id="mask-2" sketch:name="Clip 2" fill="white">
                <use xlink:href="#path-1"></use>
            </mask>
            <g id="Clip-2"></g>
            <path d="M178.9395,6.9814 C173.2815,6.9814 168.6765,11.5854 168.6765,17.2434 C168.6765,22.9014 173.2815,27.5044 178.9395,27.5044 C184.5985,27.5044 189.2025,22.9014 189.2025,17.2434 C189.2025,11.5854 184.5985,6.9814 178.9395,6.9814 M178.9395,33.1744 C170.1545,33.1744 163.0075,26.0274 163.0075,17.2434 C163.0075,8.4594 170.1545,1.3114 178.9395,1.3114 C187.7245,1.3114 194.8725,8.4594 194.8725,17.2434 C194.8725,26.0274 187.7245,33.1744 178.9395,33.1744" id="Fill-1" fill="#006890" sketch:type="MSShapeGroup" mask="url(#mask-2)"></path>
            <path d="M113.7129,0.5371 C112.1479,0.5371 110.8789,1.8071 110.8789,3.3721 L110.8789,30.3041 C110.8789,31.8691 112.1479,33.1391 113.7129,33.1391 C115.2779,33.1391 116.5469,31.8691 116.5469,30.3041 L116.5469,3.3721 C116.5469,1.8071 115.2779,0.5371 113.7129,0.5371" id="Fill-4" fill="#006890" sketch:type="MSShapeGroup" mask="url(#mask-2)"></path>
            <path d="M102.9443,0.8193 C101.5343,0.1403 99.8403,0.7293 99.1593,2.1393 L88.7123,23.7833 L78.2643,2.1393 C77.5833,0.7293 75.8893,0.1403 74.4793,0.8193 C73.0703,1.5003 72.4783,3.1943 73.1593,4.6043 L86.1593,31.5363 C86.1713,31.5593 86.1903,31.5763 86.2023,31.5993 C86.3123,31.8133 86.4423,32.0153 86.6053,32.1973 C86.6273,32.2213 86.6523,32.2393 86.6753,32.2623 C86.8153,32.4083 86.9723,32.5363 87.1453,32.6513 C87.2033,32.6903 87.2613,32.7253 87.3223,32.7593 C87.3763,32.7913 87.4233,32.8293 87.4793,32.8563 C87.5793,32.9043 87.6833,32.9273 87.7853,32.9643 C87.8593,32.9893 87.9283,33.0203 88.0043,33.0403 C88.2383,33.1003 88.4743,33.1383 88.7103,33.1383 L88.7113,33.1383 L88.7133,33.1383 C88.9493,33.1383 89.1853,33.1003 89.4203,33.0403 C89.4953,33.0203 89.5643,32.9893 89.6383,32.9643 C89.7403,32.9273 89.8443,32.9043 89.9443,32.8563 C90.0013,32.8293 90.0473,32.7913 90.1013,32.7593 C90.1623,32.7253 90.2203,32.6903 90.2793,32.6513 C90.4513,32.5363 90.6093,32.4083 90.7483,32.2623 C90.7713,32.2393 90.7973,32.2213 90.8193,32.1973 C90.9813,32.0153 91.1113,31.8133 91.2213,31.5993 C91.2343,31.5763 91.2533,31.5593 91.2643,31.5363 L104.2643,4.6043 C104.9453,3.1943 104.3533,1.5003 102.9443,0.8193" id="Fill-6" fill="#006890" sketch:type="MSShapeGroup" mask="url(#mask-2)"></path>
            <path d="M15.9321,1.3115 C12.0261,1.3115 8.4491,2.7295 5.6751,5.0715 L5.6751,3.2395 C5.6751,1.6735 4.4061,0.4045 2.8401,0.4045 C1.2751,0.4045 0.0061,1.6735 0.0061,3.2395 L0.0061,17.1275 C0.0051,17.1665 0.0001,17.2045 0.0001,17.2435 L0.0061,17.2435 L0.0061,30.1705 C0.0061,31.7365 1.2751,33.0055 2.8401,33.0055 C4.4061,33.0055 5.6751,31.7365 5.6751,30.1705 L5.6751,17.1275 C5.7381,11.5235 10.3121,6.9815 15.9321,6.9815 C21.5451,6.9815 26.1141,11.5125 26.1881,17.1075 C26.1881,17.1125 26.1861,17.1175 26.1861,17.1225 L26.1861,30.3035 C26.1861,31.8695 27.4551,33.1385 29.0211,33.1385 C30.5861,33.1385 31.8551,31.8695 31.8551,30.3035 L31.8551,17.2435 L31.8641,17.2435 C31.8641,8.4595 24.7171,1.3115 15.9321,1.3115" id="Fill-8" fill="#006890" sketch:type="MSShapeGroup" mask="url(#mask-2)"></path>
            <path d="M53.9336,27.5048 C48.2746,27.5048 43.6706,22.9008 43.6706,17.2428 C43.6706,11.5848 48.2746,6.9818 53.9336,6.9818 C59.5926,6.9818 64.1966,11.5848 64.1966,17.2428 C64.1966,22.9008 59.5926,27.5048 53.9336,27.5048 M53.9336,1.3118 C45.1486,1.3118 38.0016,8.4588 38.0016,17.2428 C38.0016,26.0278 45.1486,33.1748 53.9336,33.1748 C57.8386,33.1748 61.4146,31.7568 64.1886,29.4168 L64.1886,30.3038 C64.1886,31.8688 65.4576,33.1388 67.0226,33.1388 C68.5886,33.1388 69.8576,31.8688 69.8576,30.3038 L69.8576,17.4098 C69.8576,17.4078 69.8566,17.4068 69.8566,17.4058 C69.8576,17.3518 69.8656,17.2978 69.8656,17.2428 C69.8656,8.4588 62.7186,1.3118 53.9336,1.3118" id="Fill-10" fill="#006890" sketch:type="MSShapeGroup" mask="url(#mask-2)"></path>
            <mask id="mask-4" sketch:name="Clip 13" fill="white">
                <use xlink:href="#path-3"></use>
            </mask>
            <g id="Clip-13"></g>
            <path d="M130.1211,13.2275 C132.1611,7.9505 138.1151,5.3165 143.3921,7.3575 C148.6701,9.3985 151.3041,15.3535 149.2631,20.6315 C147.2221,25.9095 141.2671,28.5415 135.9891,26.5005 C130.7121,24.4595 128.0801,18.5045 130.1211,13.2275 M153.3811,41.0175 L148.5681,30.1375 C151.1931,28.3795 153.3271,25.8385 154.5501,22.6755 C157.7191,14.4825 153.6321,5.2385 145.4371,2.0695 C137.2441,-1.0985 128.0021,2.9905 124.8341,11.1835 C121.6651,19.3755 125.7521,28.6205 133.9451,31.7885 C137.0681,32.9975 140.3431,33.1435 143.3771,32.4165 L148.1941,43.3105 C148.5131,44.0265 149.0881,44.5465 149.7651,44.8085 C150.4411,45.0705 151.2181,45.0735 151.9341,44.7575 C153.3661,44.1235 154.0141,42.4495 153.3811,41.0175" id="Fill-12" fill="#F8981C" sketch:type="MSShapeGroup" mask="url(#mask-4)"></path>
        </g>
    </g>
</svg>